<svg width="60" height="48" viewBox="0 0 60 48" fill="none" xmlns="http://www.w3.org/2000/svg">
<g clip-path="url(#clip0_1_474)">
<path fill-rule="evenodd" clip-rule="evenodd" d="M12.4622 0.00650024C9.03867 0.00650024 6.50543 3.01502 6.61887 6.27768C6.72773 9.41221 6.58629 13.4719 5.5684 16.7825C4.54688 20.1025 2.82047 22.2064 0 22.4764V25.5251C2.82047 25.7958 4.54688 27.8985 5.56828 31.219C6.58629 34.5296 6.72762 38.5893 6.61875 41.7238C6.50531 44.986 9.03855 47.995 12.4627 47.995H47.5424C50.9659 47.995 53.4987 44.9865 53.3852 41.7238C53.2764 38.5893 53.4178 34.5296 54.4357 31.219C55.4572 27.8985 57.1794 25.7949 60 25.5251V22.4764C57.1795 22.2058 55.4573 20.103 54.4357 16.7825C53.4177 13.4724 53.2764 9.41221 53.3852 6.27768C53.4987 3.01549 50.9659 0.00650024 47.5424 0.00650024H12.4617H12.4622ZM40.678 29.5466C40.678 34.0391 37.3404 36.7637 31.8015 36.7637H22.3729C22.1031 36.7637 21.8445 36.6562 21.6538 36.4647C21.463 36.2732 21.3559 36.0135 21.3559 35.7427V12.2589C21.3559 11.9882 21.463 11.7284 21.6538 11.537C21.8445 11.3455 22.1031 11.2379 22.3729 11.2379H31.7479C36.3663 11.2379 39.3974 13.7497 39.3974 17.606C39.3974 20.3128 37.3583 22.7359 34.7606 23.1604V23.3016C38.2969 23.6911 40.678 26.1501 40.678 29.5466ZM30.7734 14.4746H25.3973V22.0988H29.9254C33.4257 22.0988 35.3558 20.6836 35.3558 18.1541C35.3555 15.7835 33.6961 14.4746 30.7734 14.4746ZM25.3973 25.1239V33.526H30.9712C34.6158 33.526 36.5462 32.0578 36.5462 29.2984C36.5462 26.5391 34.5616 25.1235 30.7369 25.1235H25.3973V25.1239Z" fill="#7952B3"/>
</g>
<defs>
<clipPath id="clip0_1_474">
<rect width="60" height="48" fill="white"/>
</clipPath>
</defs>
</svg>
