<svg width="30" height="45" viewBox="0 0 30 45" fill="none" xmlns="http://www.w3.org/2000/svg">
<g clip-path="url(#clip0_1_480)">
<path d="M7.50151 45C11.6407 45 15 41.64 15 37.5V30H7.50151C3.36234 30 0.00301361 33.36 0.00301361 37.5C0.00301361 41.64 3.36234 45 7.50151 45Z" fill="#0ACF83"/>
<path d="M0.00301361 22.4999C0.00301361 18.3599 3.36234 14.9999 7.50151 14.9999H15V29.9999H7.50151C3.36234 29.9999 0.00301361 26.6399 0.00301361 22.4999Z" fill="#A259FF"/>
<path d="M0.0049057 7.50006C0.0049057 3.36006 3.36423 6.10352e-05 7.5034 6.10352e-05H15.0019V15.0001H7.5034C3.36423 15.0001 0.0049057 11.6401 0.0049057 7.50006Z" fill="#F24E1E"/>
<path d="M15 6.10352e-05H22.4985C26.6377 6.10352e-05 29.997 3.36006 29.997 7.50006C29.997 11.6401 26.6377 15.0001 22.4985 15.0001H15V6.10352e-05Z" fill="#FF7262"/>
<path d="M29.997 22.4999C29.997 26.6399 26.6377 29.9999 22.4985 29.9999C18.3593 29.9999 15 26.6399 15 22.4999C15 18.3599 18.3593 14.9999 22.4985 14.9999C26.6377 14.9999 29.997 18.3599 29.997 22.4999Z" fill="#1ABCFE"/>
</g>
<defs>
<clipPath id="clip0_1_480">
<rect width="30" height="45" fill="white"/>
</clipPath>
</defs>
</svg>
