<svg width="55" height="55" viewBox="0 0 55 55" fill="none" xmlns="http://www.w3.org/2000/svg">
<rect width="55" height="55" rx="12" fill="#F0DB4F"/>
<g clip-path="url(#clip0_1_422)">
<path d="M4.93103 5.31006H49.6896V50.0687H4.93103V5.31006Z" fill="#F0DB4F"/>
<path d="M46.0264 39.3937C45.6988 37.3515 44.3671 35.6369 40.423 34.0371C39.0531 33.4075 37.5256 32.9565 37.0704 31.9183C36.9087 31.3142 36.8875 30.9738 36.9896 30.6079C37.2831 29.4209 38.6999 29.0507 39.8231 29.3911C40.5464 29.6336 41.2314 30.191 41.6441 31.0802C43.5757 29.8294 43.5715 29.8378 44.9202 28.9784C44.4266 28.2126 44.1629 27.8594 43.8395 27.5319C42.678 26.2342 41.0953 25.5662 38.5638 25.6173C38.1255 25.6726 37.6831 25.7321 37.2448 25.7875C35.9813 26.1066 34.7772 26.7703 34.0709 27.6595C31.9521 30.0634 32.5563 34.2711 35.1346 36.0028C37.6746 37.9089 41.4059 38.3429 41.8824 40.1255C42.3461 42.3082 40.2784 43.0144 38.2234 42.7634C36.7088 42.4486 35.8664 41.6785 34.9559 40.2787C33.2796 41.2488 33.2796 41.2488 31.5565 42.2401C31.9649 43.1336 32.3946 43.5378 33.0796 44.3121C36.3216 47.6009 44.4352 47.4392 45.8903 42.4613C45.9498 42.2911 46.3413 41.1509 46.0264 39.3937ZM29.2632 25.881H25.0766C25.0766 29.4975 25.0597 33.0884 25.0597 36.7048C25.0597 39.0065 25.1788 41.1168 24.8044 41.7635C24.1917 43.0356 22.6047 42.8782 21.8814 42.6314C21.1454 42.2698 20.771 41.755 20.337 41.0275C20.2179 40.819 20.1285 40.6573 20.0987 40.6446C18.9628 41.3381 17.831 42.0358 16.695 42.7293C17.2609 43.8908 18.0948 44.8992 19.1627 45.5544C20.7582 46.5116 22.9025 46.8052 25.1447 46.2904C26.6041 45.8649 27.8634 44.9843 28.5229 43.6441C29.4759 41.8869 29.2717 39.7596 29.2632 37.4068C29.2844 33.5691 29.2632 29.7315 29.2632 25.881Z" fill="#323330"/>
</g>
<defs>
<clipPath id="clip0_1_422">
<rect width="44.7586" height="44.7586" fill="white" transform="translate(4.93103 5.31006)"/>
</clipPath>
</defs>
</svg>
