<svg width="64" height="47" viewBox="0 0 64 47" fill="none" xmlns="http://www.w3.org/2000/svg">
<path d="M54.6934 27.0005C52.4714 27.0129 50.5473 27.539 48.9336 28.3225C48.3378 27.1597 47.7419 26.1437 47.6427 25.385C47.531 24.5037 47.3945 23.9651 47.531 22.9126C47.6674 21.8599 48.2881 20.3666 48.2881 20.2442C48.2756 20.1341 48.1514 19.5955 46.873 19.5833C45.5945 19.5711 44.4896 19.8281 44.3655 20.1586C44.2413 20.489 43.9931 21.2479 43.8317 22.0312C43.6083 23.1817 41.2745 27.2575 39.9463 29.3994C39.5118 28.5672 39.1394 27.8328 39.0648 27.2452C38.9532 26.364 38.8166 25.8254 38.9532 24.7729C39.0898 23.7202 39.7105 22.2271 39.7105 22.1047C39.698 21.9945 39.5739 21.456 38.2955 21.4437C37.0168 21.4315 35.9121 21.6885 35.788 22.019C35.6638 22.3494 35.5273 23.1328 35.2542 23.8916C34.9934 24.6505 31.89 31.4557 31.0832 33.2304C30.6735 34.1362 30.3137 34.8583 30.0529 35.3479C29.7922 35.8375 30.0404 35.3846 30.0156 35.4336C29.7922 35.8497 29.668 36.0823 29.668 36.0823V36.0946C29.4943 36.4006 29.3081 36.6942 29.221 36.6942C29.159 36.6942 29.0348 35.8742 29.2459 34.7483C29.7052 32.3859 30.8224 28.7019 30.8101 28.5673C30.8101 28.5061 31.021 27.8573 30.09 27.5269C29.1838 27.1964 28.8612 27.7472 28.7866 27.7472C28.7121 27.7472 28.65 27.9431 28.65 27.9431C28.65 27.9431 29.6555 23.794 26.7259 23.794C24.8888 23.794 22.3564 25.7645 21.1027 27.5638C20.3082 27.9921 18.62 28.8977 16.8325 29.8648C16.1498 30.232 15.4422 30.6237 14.7719 30.9786L14.6354 30.8315C11.0852 27.0984 4.51854 24.4547 4.79164 19.4364C4.89094 17.6127 5.53644 12.8026 17.4038 6.97653C27.1234 2.20309 34.9066 3.51273 36.2595 6.42575C38.1836 10.5872 32.1011 18.3226 21.9967 19.4364C18.1486 19.8648 16.125 18.3961 15.6162 17.8453C15.0824 17.27 15.008 17.2455 14.8094 17.3557C14.4866 17.5271 14.6852 18.0411 14.8094 18.3471C15.1073 19.1182 16.3486 20.489 18.4589 21.1744C20.3084 21.7742 24.8269 22.1047 30.2888 20.0239C36.4086 17.6862 41.1878 11.1992 39.7851 5.77705C38.3575 0.257001 29.0723 -1.55446 20.2961 1.51768C15.0699 3.35362 9.40941 6.21768 5.33783 9.97523C0.496611 14.4304 -0.273019 18.3226 0.0497292 19.9382C1.17947 25.7031 9.23563 29.4606 12.4631 32.239C12.3017 32.3246 12.1528 32.4103 12.0162 32.4838C10.4025 33.267 4.25786 36.4372 2.7186 39.7907C0.980732 43.585 2.9917 46.3146 4.33234 46.6817C8.47841 47.82 12.7238 45.776 15.0203 42.4101C17.3042 39.0442 17.0312 34.6747 15.9761 32.6797L15.9387 32.6062L17.2049 31.8718C18.0243 31.3945 18.8312 30.9539 19.5386 30.5743C19.1415 31.6392 18.8559 32.8998 18.707 34.7358C18.5332 36.8901 19.427 39.6806 20.6063 40.7821C21.1276 41.2594 21.7483 41.2717 22.1331 41.2717C23.4986 41.2717 24.1193 40.1578 24.802 38.8238C25.6461 37.1959 26.3909 35.311 26.3909 35.311C26.3909 35.311 25.4599 40.415 28.0046 40.415C28.9357 40.415 29.8667 39.2277 30.2887 38.6157V38.628C30.2887 38.628 30.3135 38.5913 30.3632 38.5056C30.4153 38.4296 30.465 38.3521 30.5121 38.2732V38.2487C30.8846 37.6122 31.7162 36.1557 32.9576 33.7445C34.5588 30.6357 36.0982 26.7435 36.0982 26.7435C36.0982 26.7435 36.2471 27.6981 36.7064 29.2648C36.9794 30.1951 37.5752 31.2109 38.0345 32.2023C37.6621 32.7164 37.4387 33.0103 37.4387 33.0103L37.4511 33.0225C37.1533 33.4142 36.818 33.8304 36.4706 34.2464C35.2044 35.7397 33.69 37.4411 33.4914 37.9307C33.2555 38.5058 33.3052 38.9342 33.7645 39.277C34.0996 39.5218 34.6955 39.5707 35.3285 39.5218C36.4706 39.4483 37.265 39.1669 37.6623 38.9954C38.2829 38.7751 38.9905 38.4446 39.6732 37.955C40.9146 37.0494 41.6718 35.7643 41.5973 34.0507C41.5601 33.1083 41.2497 32.1781 40.8649 31.2968C40.9766 31.1377 41.0885 30.9785 41.2001 30.8072C43.1614 27.9798 44.6758 24.871 44.6758 24.871C44.6758 24.871 44.8248 25.8257 45.2841 27.3924C45.5198 28.188 45.9916 29.0571 46.4137 29.9139C44.5765 31.3949 43.4221 33.1084 43.0248 34.2345C42.2924 36.3152 42.8635 37.2576 43.9434 37.4779C44.4274 37.5759 45.1227 37.3555 45.6439 37.1352C46.2894 36.9272 47.0715 36.5721 47.7916 36.0459C49.0329 35.1402 50.2246 33.8795 50.1625 32.1782C50.1253 31.3949 49.9143 30.6238 49.6287 29.8894C51.1928 29.2529 53.2161 28.8858 55.7858 29.1917C61.3097 29.8282 62.4021 33.2308 62.1912 34.6506C61.9802 36.0705 60.8257 36.8537 60.4408 37.0985C60.056 37.3311 59.9318 37.4169 59.9691 37.5881C60.0187 37.8453 60.1925 37.8329 60.5277 37.7841C60.987 37.7105 63.4324 36.6213 63.5317 34.0021C63.6807 30.6358 60.4408 26.9639 54.6934 27.0005ZM12.0907 41.1617C10.2659 43.1323 7.69637 43.8789 6.60399 43.2424C5.42472 42.5692 5.88389 39.6685 8.13084 37.5755C9.49631 36.3026 11.2714 35.1276 12.4383 34.4054C12.699 34.2463 13.0962 34.0139 13.5679 33.7323C13.6424 33.6834 13.692 33.6588 13.692 33.6588C13.7789 33.6099 13.8782 33.5487 13.9775 33.4875C14.8092 36.4739 14.0148 39.0932 12.0907 41.1617ZM25.4351 32.2146C24.802 33.7445 23.4614 37.6734 22.6545 37.4531C21.9592 37.2695 21.5373 34.2953 22.5178 31.3578C23.0143 29.8767 24.0695 28.1143 24.6902 27.4288C25.6958 26.3272 26.788 25.96 27.0612 26.4129C27.384 27.0005 25.8323 31.2599 25.4351 32.2146ZM36.4457 37.4041C36.1726 37.5389 35.9244 37.6367 35.8127 37.5634C35.7258 37.5144 35.9243 37.3308 35.9243 37.3308C35.9243 37.3308 37.3021 35.8743 37.8483 35.2011C38.1587 34.8096 38.5311 34.3567 38.9283 33.8425V33.9894C38.9284 35.7518 37.2154 36.9268 36.4457 37.4041ZM44.9364 35.4948C44.7378 35.3479 44.7627 34.895 45.4329 33.4752C45.6937 32.9122 46.2894 31.9698 47.3197 31.0763C47.4439 31.4435 47.5185 31.7983 47.5059 32.1289C47.4936 34.332 45.9047 35.1521 44.9364 35.4948Z" fill="#CF649A"/>
</svg>
