<svg width="96" height="39" viewBox="0 0 96 39" fill="none" xmlns="http://www.w3.org/2000/svg">
<rect width="2.83784" height="2.83784" rx="1.34409" fill="#094B72"/>
<rect x="11.3514" width="2.83784" height="2.83784" rx="1.34409" fill="#094B72"/>
<rect x="22.7028" width="2.83784" height="2.83784" rx="1.34409" fill="#094B72"/>
<rect x="34.054" width="2.83784" height="2.83784" rx="1.34409" fill="#094B72"/>
<rect x="45.4055" width="2.83784" height="2.83784" rx="1.34409" fill="#094B72"/>
<rect x="56.7568" width="2.83784" height="2.83784" rx="1.34409" fill="#094B72"/>
<rect x="68.1083" width="2.83784" height="2.83784" rx="1.34409" fill="#094B72"/>
<rect x="79.4597" width="2.83784" height="2.83784" rx="1.34409" fill="#094B72"/>
<rect x="90.8109" width="2.83784" height="2.83784" rx="1.34409" fill="#094B72"/>
<rect y="11.3514" width="2.83784" height="2.83784" rx="1.34409" fill="#094B72"/>
<rect x="11.3514" y="11.3514" width="2.83784" height="2.83784" rx="1.34409" fill="#094B72"/>
<rect x="22.7028" y="11.3514" width="2.83784" height="2.83784" rx="1.34409" fill="#094B72"/>
<rect x="34.054" y="11.3514" width="2.83784" height="2.83784" rx="1.34409" fill="#094B72"/>
<rect x="45.4055" y="11.3514" width="2.83784" height="2.83784" rx="1.34409" fill="#094B72"/>
<rect x="56.7568" y="11.3514" width="2.83784" height="2.83784" rx="1.34409" fill="#094B72"/>
<rect x="68.1083" y="11.3514" width="2.83784" height="2.83784" rx="1.34409" fill="#094B72"/>
<rect x="79.4597" y="11.3514" width="2.83784" height="2.83784" rx="1.34409" fill="#094B72"/>
<rect x="90.8109" y="11.3514" width="2.83784" height="2.83784" rx="1.34409" fill="#094B72"/>
<rect y="22.7027" width="2.83784" height="2.83784" rx="1.34409" fill="#094B72"/>
<rect x="11.3514" y="22.7027" width="2.83784" height="2.83784" rx="1.34409" fill="#094B72"/>
<rect x="22.7028" y="22.7027" width="2.83784" height="2.83784" rx="1.34409" fill="#094B72"/>
<rect x="34.054" y="22.7027" width="2.83784" height="2.83784" rx="1.34409" fill="#094B72"/>
<rect x="45.4055" y="22.7027" width="2.83784" height="2.83784" rx="1.34409" fill="#094B72"/>
<rect x="56.7568" y="22.7027" width="2.83784" height="2.83784" rx="1.34409" fill="#094B72"/>
<rect x="68.1083" y="22.7027" width="2.83784" height="2.83784" rx="1.34409" fill="#094B72"/>
<rect x="79.4597" y="22.7027" width="2.83784" height="2.83784" rx="1.34409" fill="#094B72"/>
<rect x="90.8109" y="22.7027" width="2.83784" height="2.83784" rx="1.34409" fill="#094B72"/>
<rect y="34.0541" width="2.83784" height="2.83784" rx="1.34409" fill="#094B72"/>
<rect x="11.3514" y="34.0541" width="2.83784" height="2.83784" rx="1.34409" fill="#094B72"/>
<rect x="22.7028" y="34.0541" width="2.83784" height="2.83784" rx="1.34409" fill="#094B72"/>
<rect x="34.054" y="34.0541" width="2.83784" height="2.83784" rx="1.34409" fill="#094B72"/>
<rect x="45.4055" y="34.0541" width="2.83784" height="2.83784" rx="1.34409" fill="#094B72"/>
<rect x="56.7568" y="34.0541" width="2.83784" height="2.83784" rx="1.34409" fill="#094B72"/>
<rect x="68.1083" y="34.0541" width="2.83784" height="2.83784" rx="1.34409" fill="#094B72"/>
<rect x="79.4597" y="34.0541" width="2.83784" height="2.83784" rx="1.34409" fill="#094B72"/>
<rect x="90.8109" y="34.0541" width="2.83784" height="2.83784" rx="1.34409" fill="#094B72"/>
</svg>
